<svg height="511pt" viewBox="1 -15 511.999 511" width="511pt" xmlns="http://www.w3.org/2000/svg"><path d="m404.71875 92.179688c0-38.09375 0-68.796876 0-70.804688 0-7.09375-5.714844-12.902344-12.695312-12.902344h-332.65625c-6.984376 0-12.699219 5.808594-12.699219 12.902344v70.804688zm0 0" fill="#f4b537"/><path d="m89.367188 8.472656h-30c-6.984376 0-12.699219 5.808594-12.699219 12.902344v70.804688h30.003906c0-38.097657 0-68.796876 0-70.804688 0-7.09375 5.710937-12.902344 12.695313-12.902344zm0 0" fill="#eaa01c"/><path d="m332.835938 92.179688 71.882812-70.804688c0-7.09375-5.714844-12.902344-12.695312-12.902344h-332.65625c-6.984376 0-12.699219 5.808594-12.699219 12.902344l71.882812 70.804688zm0 0" fill="#feca57"/><path d="m46.667969 21.375 30.003906 29.554688c0-17.015626 0-28.359376 0-29.554688 0-7.09375 5.714844-12.902344 12.695313-12.902344h-30c-6.984376 0-12.699219 5.808594-12.699219 12.902344zm0 0" fill="#f4b537"/><path d="m324.996094 384.984375c0-49.628906 40.234375-89.863281 89.867187-89.863281 10.070313 0 19.753907 1.65625 28.792969 4.710937 0-78.097656 0-189.304687 0-193.539062 0-8.5-6.953125-15.457031-15.457031-15.457031h-405.011719c-8.5 0-15.457031 6.957031-15.457031 15.457031v269.027343c0 8.503907 6.957031 15.457032 15.457031 15.457032h302c-.121094-1.914063-.191406-3.84375-.191406-5.792969zm0 0" fill="#feca57"/><path d="m37.730469 375.320312c0-2.796874 0-262.507812 0-269.027343 0-8.5 6.957031-15.453125 15.457031-15.453125h-30c-8.5 0-15.457031 6.953125-15.457031 15.453125v269.027343c0 8.503907 6.957031 15.457032 15.457031 15.457032h30c-8.5 0-15.457031-6.953125-15.457031-15.457032zm0 0" fill="#f4b537"/><path d="m324.996094 384.984375c0-34.136719 19.039062-63.832031 47.078125-79.042969l-67.207031-65.132812-32.824219 31.816406c-25.828125 25.035156-66.871094 25.035156-92.699219 0l-32.828125-31.816406-138.785156 134.511718c0 8.503907 6.957031 15.457032 15.457031 15.457032h302c-.121094-1.914063-.191406-3.84375-.191406-5.792969zm0 0" fill="#f4b537"/><path d="m167.414062 261.058594-20.894531-20.25-138.789062 134.511718c0 8.503907 6.957031 15.457032 15.457031 15.457032h10.382812zm0 0" fill="#eaa01c"/><path d="m428.199219 90.839844h-405.011719c-8.5 0-15.457031 6.953125-15.457031 15.453125l171.613281 168.332031c25.828125 25.035156 66.871094 25.035156 92.699219 0l171.613281-168.332031c0-8.5-6.953125-15.453125-15.457031-15.453125zm0 0" fill="#fcd486"/><path d="m7.730469 106.292969 30 29.429687c0-17.03125 0-28.144531 0-29.429687 0-8.5 6.957031-15.453125 15.457031-15.453125h-30c-8.5 0-15.457031 6.953125-15.457031 15.453125zm0 0" fill="#feca57"/><path d="m504.730469 384.449219c0 49.929687-40.476563 90.402343-90.40625 90.402343-49.925781 0-90.402344-40.472656-90.402344-90.402343 0-49.929688 40.476563-90.402344 90.402344-90.402344 49.929687 0 90.40625 40.472656 90.40625 90.402344zm0 0" fill="#ff6b6b"/><path d="m353.921875 384.449219c0-44.816407 32.617187-82.011719 75.402344-89.15625-4.878907-.816407-9.886719-1.246094-15-1.246094-49.925781 0-90.402344 40.472656-90.402344 90.402344 0 49.925781 40.476563 90.402343 90.402344 90.402343 5.113281 0 10.121093-.429687 15-1.246093-42.785157-7.144531-75.402344-44.339844-75.402344-89.15625zm0 0" fill="#ee5253"/><g fill="#020202"><path d="m377.625 421.523438c2.929688 2.925781 7.675781 2.925781 10.605469 0l26.402343-26.402344 26.402344 26.402344c2.929688 2.925781 7.679688 2.925781 10.605469 0 2.929687-2.929688 2.929687-7.679688 0-10.609376l-26.398437-26.402343 26.398437-26.402344c2.929687-2.929687 2.929687-7.675781 0-10.605469-2.929687-2.929687-7.675781-2.929687-10.605469 0l-26.402344 26.402344-26.402343-26.402344c-2.929688-2.925781-7.675781-2.929687-10.605469 0-2.929688 2.929688-2.929688 7.679688 0 10.605469l26.402344 26.402344-26.402344 26.402343c-2.929688 2.929688-2.929688 7.679688 0 10.609376zm0 0"/><path d="m22.957031 397.804688h184.480469c4.140625 0 7.5-3.355469 7.5-7.5 0-4.144532-3.359375-7.5-7.5-7.5h-184.480469c-3.304687 0-6.335937-2.09375-7.472656-5.25l130.804687-126.773438 27.605469 26.753906c28.730469 27.847656 74.375 27.875 103.140625 0l27.605469-26.753906 55.039063 53.339844c-25.832032 17.664062-41.832032 46.828125-42.398438 78.683594h-74.84375c-4.140625 0-7.5 3.359374-7.5 7.5 0 4.144531 3.359375 7.5 7.5 7.5h75.738281c6.503907 47.421874 47.277344 84.074218 96.457031 84.074218 53.6875 0 97.367188-43.679687 97.367188-97.367187 0-40.863281-25.308594-75.925781-61.074219-90.34375v-58.546875c0-4.144532-3.355469-7.5-7.5-7.5-4.140625 0-7.5 3.355468-7.5 7.5v53.859375c-6.5625-1.460938-13.980469-2.335938-21.292969-2.335938-14.207031 0-28.351562 3.101563-41.382812 9.242188l-57.832031-56.050781 120.507812-116.800782v77.082032c0 4.144531 3.359375 7.5 7.5 7.5 4.144531 0 7.5-3.355469 7.5-7.5v-94.796876c0-12.660156-10.296875-22.957031-22.957031-22.957031h-15.980469v-62.167969c0-11.136718-9.058593-20.195312-20.195312-20.195312h-332.65625c-11.136719 0-20.199219 9.058594-20.199219 20.195312v62.167969h-15.980469c-12.65625 0-22.957031 10.296875-22.957031 22.957031v269.027344c0 12.660156 10.296875 22.957032 22.957031 22.957032zm391.675781-95.660157c45.40625 0 82.367188 36.945313 82.367188 82.367188 0 45.414062-36.949219 82.363281-82.367188 82.363281-43.804687 0-79.722656-34.375-82.214843-77.566406-2.765625-47.296875 34.996093-87.164063 82.214843-87.164063zm-355.496093-286.644531h332.65625c1.734375 0 3.503906.941406 4.503906 2.691406l-66.730469 64.671875h-208.207031l-66.726563-64.671875c.996094-1.757812 2.773438-2.691406 4.503907-2.691406zm337.851562 22.910156v44.453125h-45.867187zm-343.046875 0 45.863282 44.453125h-45.863282zm-30.984375 59.453125h405.011719c3.222656 0 6.261719 1.964844 7.472656 5.25-5.679687 5.507813-160.742187 155.792969-168.847656 163.648438-23.0625 22.355469-59.195312 22.355469-82.257812 0-7.21875-6.992188-162.875-157.855469-168.851563-163.648438 1.230469-3.335937 4.332031-5.25 7.472656-5.25zm-7.957031 25.671875 120.511719 116.800782-120.511719 116.796874zm0 0"/></g></svg>